<svg width="32" height="31" viewBox="0 0 32 31" fill="none" xmlns="http://www.w3.org/2000/svg">
<path d="M15.4377 5.43624C17.4347 6.6315 19.648 7.42075 21.9507 7.75871C23.7178 8.01115 25.4849 8.11213 27.1511 7.20333C28.2618 6.59747 28.8677 5.63819 28.6657 4.42647C28.3628 2.55839 27.1511 1.24569 25.8384 0.0339671C25.6869 -0.0670099 25.6364 0.084456 25.6869 0.134944C25.7879 0.28641 25.9393 0.387387 26.0403 0.538852C26.6462 1.49813 27.252 2.5079 26.6967 3.66914C26.1918 4.83037 25.0305 5.13331 23.8693 5.18379C21.2439 5.33526 18.8709 4.47696 16.6494 3.21474C15.8416 2.76035 15.0843 2.91181 14.7308 3.56816C14.3774 4.27501 14.6299 4.98184 15.4377 5.43624ZM28.1104 14.1707C25.6364 14.9786 23.112 14.8776 20.5875 14.3727C18.0624 13.8591 15.6172 13.0101 13.3171 11.8483C13.2667 11.7978 13.1657 11.7978 13.1152 11.7473C12.0549 11.2424 11.2471 11.3434 10.8432 12.1512C10.4393 12.959 10.7422 13.6659 11.752 14.1707C14.2257 15.4918 16.8791 16.4443 19.6282 16.9981C22.3041 17.5535 24.9801 17.7554 27.7064 17.0486C30.9882 16.1903 32.5534 13.6659 31.5436 10.4346C31.5436 10.3841 31.4426 10.3841 31.4426 10.4346C31.0892 12.5551 29.827 13.6154 28.1104 14.1707V14.1707ZM9.68195 7.05187C13.3891 10.1025 17.8913 12.0294 22.6576 12.6056C24.5954 12.9344 26.5864 12.7249 28.4133 11.9997C30.5843 11.0405 31.3921 9.22287 30.7358 6.95089C30.4956 6.29956 30.1912 5.67378 29.827 5.08282C29.7765 4.98184 29.5745 4.98184 29.625 5.28477C30.0289 7.3548 29.2716 8.76848 27.3025 9.47532C26.1062 9.90158 24.83 10.0568 23.5664 9.92971C19.0782 9.6165 14.8109 7.86355 11.3986 4.93135C11.1683 4.74216 10.9492 4.53988 10.7422 4.32549C10.4676 4.11426 10.1243 4.01277 9.77895 4.04077C9.43364 4.06877 9.11111 4.22425 8.87413 4.47696C8.75175 4.60131 8.65571 4.74908 8.59177 4.91141C8.52783 5.07375 8.49731 5.24732 8.50202 5.42173C8.50674 5.59614 8.54659 5.76781 8.61921 5.92646C8.69182 6.0851 8.7957 6.22747 8.92462 6.34503C9.15285 6.60532 9.40655 6.84212 9.68195 7.05187V7.05187ZM31.6951 15.6854C30.8368 17.3515 30.1804 18.0079 28.7162 18.6137C27.784 19.0128 26.7967 19.2682 25.7879 19.3711C23.1614 19.6599 20.5038 19.437 17.9621 18.7147C11.8025 17.0486 6.40018 14.2717 2.31059 9.22287C2.1201 8.93186 1.82346 8.72676 1.48392 8.65131C1.14439 8.57586 0.788808 8.63602 0.49299 8.81896C0.222079 9.02909 0.0440372 9.33679 -0.00312835 9.67638C-0.0502939 10.016 0.037153 10.3605 0.240547 10.6365C0.847041 11.5882 1.55833 12.4688 2.36108 13.262C6.7652 17.5365 12.3326 20.4168 18.366 21.5421C20.5874 22.0194 22.8662 22.1725 25.1315 21.9965C28.9182 21.643 31.0387 19.9264 31.6446 16.5437C31.7002 16.2606 31.734 15.9737 31.7456 15.6854C31.7456 15.6349 31.6951 15.6854 31.6951 15.6854L31.6951 15.6854ZM20.0322 29.8727C19.8807 29.8727 19.6787 29.9232 19.4768 29.9232C15.7149 30.0741 11.9682 29.3662 8.52071 27.8531C8.1168 27.7017 7.76338 27.6512 7.56142 28.1056C7.40996 28.56 7.71289 28.7619 8.06631 28.9134C10.8101 30.0947 13.7632 30.7128 16.7504 30.731C17.9116 30.6805 19.0729 30.63 20.1331 29.9232C20.2846 29.8222 20.0322 29.8727 20.0322 29.8727V29.8727ZM30.0289 21.1382C29.4332 21.8892 28.6732 22.4937 27.8074 22.9053C26.4164 23.4978 24.9263 23.8232 23.4149 23.8645C19.8807 24.016 16.4979 23.2587 13.2162 22.1479C9.75453 20.9652 6.52545 19.1884 3.67378 16.8971C3.53413 16.7498 3.35669 16.6436 3.16081 16.5902C2.96494 16.5367 2.75817 16.5381 2.56303 16.5942C2.35065 16.6529 2.1584 16.7687 2.0071 16.9289C1.8558 17.0891 1.75123 17.2876 1.70472 17.503C1.65567 17.7775 1.69236 18.0605 1.8098 18.3134C1.92723 18.5663 2.11972 18.777 2.36108 18.9167C6.40241 22.1964 11.1587 24.4794 16.2455 25.5811H16.296C17.2553 25.7326 17.8106 25.8336 18.568 25.9346C21.2295 26.3076 23.9412 26.0658 26.4947 25.2277C27.0911 24.994 27.6389 24.6516 28.1104 24.218C29.0732 23.4136 29.776 22.3418 30.1299 21.1382C30.1234 21.1313 30.1155 21.1259 30.1069 21.1222C30.0982 21.1185 30.0889 21.1166 30.0794 21.1166C30.07 21.1166 30.0607 21.1185 30.052 21.1222C30.0433 21.1259 30.0355 21.1313 30.0289 21.1382H30.0289ZM25.9393 26.4899C25.8105 26.5682 25.6754 26.6358 25.5354 26.6919H25.4849C23.4149 27.6007 20.941 27.6512 18.7699 27.4492C14.3519 27.0306 10.0786 25.6521 6.24871 23.4101C5.49138 22.9557 4.78454 22.4509 4.02721 22.0469C3.93259 21.9794 3.82499 21.9321 3.7112 21.9081C3.59741 21.8842 3.47989 21.8841 3.36605 21.9078C3.25221 21.9315 3.14452 21.9785 3.04976 22.0459C2.955 22.1133 2.87523 22.1996 2.81548 22.2994C2.74994 22.388 2.70306 22.4889 2.67768 22.5962C2.65231 22.7034 2.64896 22.8147 2.66784 22.9232C2.68672 23.0318 2.72744 23.1354 2.78753 23.2278C2.84762 23.3202 2.92583 23.3994 3.01743 23.4606C3.21939 23.6121 3.47183 23.814 3.67378 23.9655C7.23854 26.3975 11.2852 28.0334 15.5387 28.7619C19.1234 29.3173 22.6576 29.4688 25.7374 26.9948L25.8384 26.8938C26.3937 26.3385 26.2928 26.3385 25.9394 26.4899L25.9393 26.4899Z" fill="#1D68FF"/>
</svg>
